<?xml version="1.0" encoding="UTF-8" standalone="no"?>
<svg
   width="480"
   height="230"
   viewBox="0 0 480 230"
   fill="none"
   version="1.1"
   id="svg2"
   sodipodi:docname="logo-dark.svg"
   inkscape:version="1.4.2 (ebf0e940, 2025-05-08)"
   xmlns:inkscape="http://www.inkscape.org/namespaces/inkscape"
   xmlns:sodipodi="http://sodipodi.sourceforge.net/DTD/sodipodi-0.dtd"
   xmlns="http://www.w3.org/2000/svg"
   xmlns:svg="http://www.w3.org/2000/svg">
  <sodipodi:namedview
     id="namedview2"
     pagecolor="#ffffff"
     bordercolor="#000000"
     borderopacity="0.25"
     inkscape:showpageshadow="2"
     inkscape:pageopacity="0.0"
     inkscape:pagecheckerboard="0"
     inkscape:deskcolor="#d1d1d1"
     inkscape:zoom="0.43130492"
     inkscape:cx="66.078541"
     inkscape:cy="527.46906"
     inkscape:window-width="1512"
     inkscape:window-height="850"
     inkscape:window-x="0"
     inkscape:window-y="38"
     inkscape:window-maximized="0"
     inkscape:current-layer="svg2" />
  <path
     d="M 1.5,179.86188 V 109.52537 C 1.5,99.443004 3.820545,90.240843 8.461635,81.918889 13.262762,73.596935 20.144378,66.955376 29.106482,61.994211 38.068586,57.033046 48.7911,54.552463 61.27403,54.552463 c 12.64297,0 23.36549,2.480583 32.16756,7.441748 8.9621,4.961165 15.7637,11.602724 20.40479,19.924678 4.80113,8.321954 7.20169,17.524115 7.20169,27.606481 v 70.33651 H 88.16035 v -70.33651 c 0,-4.96116 -1.20028,-9.44222 -3.60085,-13.443155 -2.40056,-4.160977 -5.68133,-7.441748 -9.84231,-9.842311 -4.00094,-2.400564 -8.48199,-3.600846 -13.44316,-3.600846 -4.96116,0 -9.52223,1.200282 -13.68321,3.600846 -4.00094,2.400563 -7.201689,5.681334 -9.602252,9.842311 -2.400564,4.000935 -3.600846,8.481985 -3.600846,13.443155 v 70.33651 z m 210.5121,2.88069 c -12.48294,0 -23.20545,-2.48059 -32.16756,-7.44176 -8.9621,-4.96116 -15.84372,-11.60272 -20.64485,-19.92468 -4.64109,-8.32194 -6.96163,-17.52411 -6.96163,-27.60647 V 57.43314 h 32.88772 v 70.33652 c 0,4.96115 1.20028,9.52223 3.60085,13.6832 2.40056,4.00094 5.60131,7.2017 9.60225,9.60226 4.16098,2.40057 8.72205,3.60084 13.68322,3.60084 4.96116,0 9.44221,-1.20027 13.44315,-3.60084 4.16098,-2.40056 7.44175,-5.60131 9.84231,-9.60226 2.40057,-4.16097 3.60085,-8.72205 3.60085,-13.6832 V 57.43314 h 32.88772 v 70.33652 c 0,10.08236 -2.40056,19.28452 -7.20169,27.60647 -4.64109,8.32196 -11.44269,14.96352 -20.40479,19.92468 -8.80207,4.96117 -19.52459,7.44176 -32.16755,7.44176 z m 144.49792,0 c -7.20169,0 -13.76323,-1.92045 -19.68462,-5.76136 -5.76135,-3.84091 -9.76229,-8.88208 -12.00282,-15.12355 L 289.77435,57.43314 h 35.7684 l 28.32665,90.98136 c 0.32008,0.64015 0.72017,1.12026 1.20029,1.44034 0.48011,0.32007 1.04024,0.48011 1.68039,0.48011 0.64015,0 1.20028,-0.16004 1.68039,-0.48011 0.64015,-0.32008 1.04025,-0.80019 1.20029,-1.44034 l 28.5667,-90.98136 h 35.04823 L 388.19746,161.6176 c -2.24052,6.24146 -6.32148,11.36267 -12.24287,15.3636 -5.76135,3.84091 -12.24288,5.76136 -19.44457,5.76137 z m 84.78124,-2.88069 V 57.43314 h 33.12778 V 179.86188 Z M 457.85515,42.789702 c -5.60131,0 -10.48246,-2.00047 -14.64344,-6.00141 -4.00094,-4.160977 -6.0014,-9.042123 -6.0014,-14.643438 0,-5.601315 2.00046,-10.402442 6.0014,-14.4033818 C 447.37269,3.5804952 452.25384,1.5 457.85515,1.5 c 5.60132,0 10.40245,2.0804952 14.40338,6.2414722 4.16098,4.0009398 6.24147,8.8020668 6.24147,14.4033818 0,5.601315 -2.08049,10.482461 -6.24147,14.643438 -4.00093,4.00094 -8.80206,6.00141 -14.40338,6.00141 z"
     fill="url(#paint0_linear_105_141)"
     id="path1"
     style="fill:url(#paint0_linear_105_141);stroke-width:1.33365" />
  <defs
     id="defs2">
    <linearGradient
       id="paint0_linear_105_141"
       x1="157.761"
       y1="-12"
       x2="309.89899"
       y2="219.45399"
       gradientUnits="userSpaceOnUse"
       gradientTransform="matrix(1.3336465,0,0,1.3336465,-77.61591,1.1532586)">
      <stop
         stop-color="#FFF9F9"
         id="stop1" />
      <stop
         offset="1"
         stop-color="#838383"
         id="stop2" />
    </linearGradient>
  </defs>
</svg>
