<?xml version="1.0" encoding="UTF-8" standalone="no"?>
<svg
   width="480"
   height="230"
   viewBox="0 0 480 230"
   fill="none"
   version="1.1"
   id="svg2"
   sodipodi:docname="logo.svg"
   inkscape:version="1.4.2 (ebf0e940, 2025-05-08)"
   xmlns:inkscape="http://www.inkscape.org/namespaces/inkscape"
   xmlns:sodipodi="http://sodipodi.sourceforge.net/DTD/sodipodi-0.dtd"
   xmlns="http://www.w3.org/2000/svg"
   xmlns:svg="http://www.w3.org/2000/svg">
  <sodipodi:namedview
     id="namedview2"
     pagecolor="#ffffff"
     bordercolor="#000000"
     borderopacity="0.25"
     inkscape:showpageshadow="2"
     inkscape:pageopacity="0.0"
     inkscape:pagecheckerboard="0"
     inkscape:deskcolor="#d1d1d1"
     inkscape:zoom="0.84486382"
     inkscape:cx="221.92926"
     inkscape:cy="115.40321"
     inkscape:window-width="1512"
     inkscape:window-height="850"
     inkscape:window-x="0"
     inkscape:window-y="38"
     inkscape:window-maximized="0"
     inkscape:current-layer="svg2" />
  <path
     d="M 1.5,179.86188 V 109.52537 C 1.5,99.442996 3.8205449,90.240843 8.4616345,81.918893 13.262762,73.596934 20.144378,66.955375 29.106482,61.99421 c 8.962104,-4.961164 19.684622,-7.441747 32.167553,-7.441747 12.642968,0 23.365486,2.480583 32.167552,7.441747 8.962103,4.961165 15.763703,11.602724 20.404803,19.924683 4.80112,8.32195 7.20168,17.524103 7.20168,27.606477 v 70.33651 H 88.160347 v -70.33651 c 0,-4.96116 -1.200282,-9.44222 -3.600845,-13.443155 -2.400564,-4.16098 -5.681334,-7.441746 -9.84231,-9.842308 -4.00094,-2.400572 -8.481993,-3.600854 -13.443157,-3.600854 -4.961165,0 -9.522236,1.200282 -13.683213,3.600854 -4.000939,2.400562 -7.201691,5.681328 -9.602255,9.842308 -2.400563,4.000935 -3.600845,8.481995 -3.600845,13.443155 v 70.33651 z m 210.51209,2.88068 c -12.48293,0 -23.20544,-2.48059 -32.16754,-7.44176 -8.96211,-4.96115 -15.84373,-11.60271 -20.64485,-19.92467 -4.64109,-8.32196 -6.96164,-17.52411 -6.96164,-27.60648 V 57.433139 h 32.88772 v 70.336511 c 0,4.96116 1.20028,9.52223 3.60084,13.68321 2.40057,4.00094 5.60133,7.20169 9.60226,9.60225 4.16098,2.40057 8.72205,3.60085 13.68321,3.60085 4.96117,0 9.44222,-1.20028 13.44316,-3.60085 4.16098,-2.40056 7.44175,-5.60131 9.84233,-9.60225 2.40056,-4.16098 3.60084,-8.72205 3.60084,-13.68321 V 57.433139 h 32.88772 v 70.336511 c 0,10.08237 -2.40056,19.28452 -7.20169,27.60648 -4.64109,8.32196 -11.44269,14.96352 -20.4048,19.92467 -8.80206,4.96117 -19.52458,7.44176 -32.16756,7.44176 z m 144.49793,0 c -7.20168,0 -13.76322,-1.92045 -19.68461,-5.76136 -5.76135,-3.8409 -9.7623,-8.88208 -12.00283,-15.12355 L 289.77435,57.433139 h 35.76841 L 353.8694,148.4145 c 0.32008,0.64014 0.72017,1.12025 1.20028,1.44033 0.48011,0.32008 1.04025,0.48012 1.6804,0.48012 0.64015,0 1.20028,-0.16004 1.68039,-0.48012 0.64015,-0.32008 1.04025,-0.80019 1.20029,-1.44033 l 28.5667,-90.981361 h 35.04823 L 388.19746,161.61759 c -2.24053,6.24147 -6.32148,11.36268 -12.24286,15.36361 -5.76137,3.84091 -12.24289,5.76136 -19.44458,5.76136 z m 84.78125,-2.88068 V 57.433139 h 33.12778 V 179.86188 Z M 457.85516,42.789701 c -5.60132,0 -10.48246,-2.000469 -14.64345,-6.001409 -4.00093,-4.160977 -6.00141,-9.042123 -6.00141,-14.643438 0,-5.601315 2.00048,-10.402443 6.00141,-14.4033815 C 447.37269,3.5804951 452.25384,1.5 457.85516,1.5 c 5.60131,0 10.40245,2.0804951 14.40338,6.2414725 4.16097,4.0009385 6.24146,8.8020665 6.24146,14.4033815 0,5.601315 -2.08049,10.482461 -6.24146,14.643438 -4.00093,4.00094 -8.80208,6.001409 -14.40338,6.001409 z"
     fill="url(#paint0_linear_28_54)"
     id="path1"
     style="fill:url(#paint0_linear_28_54);stroke-width:1.33364" />
  <defs
     id="defs2">
    <linearGradient
       id="paint0_linear_28_54"
       x1="157.761"
       y1="-12"
       x2="309.89899"
       y2="219.45399"
       gradientUnits="userSpaceOnUse"
       gradientTransform="matrix(1.3336465,0,0,1.3336465,-77.615911,1.1532588)">
      <stop
         stop-color="#68EFF9"
         id="stop1" />
      <stop
         offset="1"
         stop-color="#CC68F9"
         id="stop2" />
    </linearGradient>
  </defs>
</svg>
